<?xml version="1.0" encoding="UTF-8"?>
<svg id="Layer_1" data-name="Layer 1" xmlns="http://www.w3.org/2000/svg" viewBox="0 0 800 800">
  <path d="m400.33,475.25c-16.84,0-30.5-13.66-30.5-30.5v-126.46c0-16.85,13.66-30.5,30.5-30.5s30.5,13.65,30.5,30.5v126.46c0,16.84-13.66,30.5-30.5,30.5Z"/>
  <path d="m400.33,601.71c-16.84,0-30.5-13.66-30.5-30.5v-.47c0-16.84,13.66-30.5,30.5-30.5s30.5,13.66,30.5,30.5v.47c0,16.84-13.66,30.5-30.5,30.5Z"/>
  <path d="m678.6,770.33H122.07c-41.11,0-78.1-21.15-98.95-56.58-20.85-35.43-21.38-78.04-1.41-113.98L299.97,98.89l26.66,14.81-26.66-14.81c20.54-36.98,58.06-59.05,100.36-59.05s79.82,22.08,100.36,59.05l278.26,500.87c19.96,35.94,19.44,78.55-1.41,113.98-20.85,35.43-57.84,56.59-98.95,56.59ZM400.33,100.84c-19.83,0-37.41,10.35-47.04,27.68h0S75.03,629.39,75.03,629.39c-9.36,16.84-9.11,36.82.66,53.42,9.77,16.61,27.11,26.52,46.38,26.52h556.53c19.27,0,36.61-9.91,46.38-26.52,9.77-16.61,10.02-36.58.66-53.42L447.37,128.52c-9.63-17.33-27.21-27.68-47.04-27.68Z"/>
</svg>