<?xml version="1.0" encoding="UTF-8"?>
<svg id="Layer_1" data-name="Layer 1" xmlns="http://www.w3.org/2000/svg" viewBox="0 0 800 800">
  <path d="m758.74,790.05H40.73c-17.12,0-31-13.88-31-31s13.88-31,31-31h718c17.12,0,31,13.88,31,31s-13.88,31-31,31Z"/>
  <g>
    <path d="m40.73,790.05c-17.12,0-31-13.88-31-31V41.05c0-17.12,13.88-31,31-31s31,13.88,31,31v718c0,17.12-13.88,31-31,31Z"/>
    <path d="m200.29,590.61c-7.93,0-15.87-3.03-21.92-9.08-12.11-12.11-12.11-31.73,0-43.84l209.42-209.42c12.11-12.11,31.73-12.11,43.84,0l117.69,117.69,187.5-187.5c12.11-12.11,31.73-12.11,43.84,0,12.11,12.11,12.11,31.73,0,43.84l-209.42,209.42c-5.81,5.81-13.7,9.08-21.92,9.08s-16.11-3.27-21.92-9.08l-117.69-117.69-187.5,187.5c-6.05,6.05-13.99,9.08-21.92,9.08Z"/>
  </g>
</svg>