<?xml version="1.0" encoding="UTF-8"?>
<svg id="Layer_1" data-name="Layer 1" xmlns="http://www.w3.org/2000/svg" viewBox="0 0 800 800">
  <path d="m755.66,435.59h-292.96c-16.84,0-30.5-13.66-30.5-30.5s13.66-30.5,30.5-30.5h292.96c16.84,0,30.5,13.66,30.5,30.5s-13.66,30.5-30.5,30.5Z"/>
  <path d="m645.8,545.45c-7.81,0-15.61-2.98-21.57-8.93-11.91-11.91-11.91-31.22,0-43.13l88.29-88.29-88.29-88.29c-11.91-11.91-11.91-31.22,0-43.13,11.91-11.91,31.22-11.91,43.13,0l106.67,106.67c13.65,13.65,13.65,35.86,0,49.51l-106.67,106.67c-5.96,5.96-13.76,8.93-21.57,8.93Z"/>
  <path d="m517.63,765.17H169.74c-57.2,0-103.74-46.54-103.74-103.74V148.74c0-57.2,46.54-103.74,103.74-103.74h347.89c47.11,0,85.43,38.32,85.43,85.43v18.31c0,16.84-13.66,30.5-30.5,30.5s-30.5-13.66-30.5-30.5v-18.31c0-13.47-10.96-24.43-24.43-24.43H169.74c-23.57,0-42.74,19.17-42.74,42.74v512.68c0,23.57,19.17,42.74,42.74,42.74h347.89c13.47,0,24.43-10.96,24.43-24.43v-18.31c0-16.84,13.66-30.5,30.5-30.5s30.5,13.66,30.5,30.5v18.31c0,47.11-38.32,85.43-85.43,85.43Z"/>
</svg>