<?xml version="1.0" encoding="UTF-8"?>
<svg id="Layer_1" data-name="Layer 1" xmlns="http://www.w3.org/2000/svg" viewBox="0 0 800 800">
  <path d="m772.76,800H27.24c-15.04,0-27.24-12.2-27.24-27.24V27.24C0,12.2,12.2,0,27.24,0h745.52c15.04,0,27.24,12.2,27.24,27.24v745.52c0,15.04-12.2,27.24-27.24,27.24Zm-208.68-63.16h145.52c15.04,0,27.24-12.2,27.24-27.24v-250.78c0-15.04-12.2-27.24-27.24-27.24h-145.52c-15.04,0-27.24,12.2-27.24,27.24v250.78c0,15.04,12.2,27.24,27.24,27.24Zm-473.68,0h356.05c15.04,0,27.24-12.2,27.24-27.24v-250.78c0-15.04-12.2-27.24-27.24-27.24H90.4c-15.04,0-27.24,12.2-27.24,27.24v250.78c0,15.04,12.2,27.24,27.24,27.24Zm263.16-368.42h356.05c15.04,0,27.24-12.2,27.24-27.24V90.4c0-15.04-12.2-27.24-27.24-27.24h-356.05c-15.04,0-27.24,12.2-27.24,27.24v250.78c0,15.04,12.2,27.24,27.24,27.24Zm-263.16,0h145.52c15.04,0,27.24-12.2,27.24-27.24V90.4c0-15.04-12.2-27.24-27.24-27.24H90.4c-15.04,0-27.24,12.2-27.24,27.24v250.78c0,15.04,12.2,27.24,27.24,27.24Z"/>
</svg>