<?xml version="1.0" encoding="UTF-8"?>
<svg id="Layer_1" data-name="Layer 1" xmlns="http://www.w3.org/2000/svg" viewBox="0 0 800 800">
  <path d="m497.08,9.58H112.1c-12.9,0-23.35,10.46-23.35,23.35v732.12c0,12.9,10.46,23.35,23.35,23.35h572.55c12.9,0,23.35-10.46,23.35-23.35V220.51c0-6.19-2.46-12.13-6.84-16.51L513.6,16.42c-4.38-4.38-10.32-6.84-16.51-6.84Zm50.83,183.48h0c-12.9,0-23.35-10.46-23.35-23.35h0c0-20.81,25.16-31.23,39.87-16.51h0c14.71,14.71,4.29,39.87-16.51,39.87Zm-398.4,511.25V93.69c0-12.9,10.46-23.35,23.35-23.35h267.58c12.9,0,23.35,10.46,23.35,23.35v106.39c0,29.68,24.06,53.73,53.73,53.73h106.37c12.9,0,23.35,10.46,23.35,23.35v427.14c0,12.9-10.46,23.35-23.35,23.35H172.86c-12.9,0-23.35-10.46-23.35-23.35Z"/>
  <rect x="224.2" y="613.1" width="348.36" height="40.5" rx="6.56" ry="6.56"/>
  <rect x="224.2" y="232.76" width="206.8" height="40.5" rx="6.56" ry="6.56"/>
  <path d="m506.62,361.7h.05c5.84,0,8.77,7.07,4.64,11.2l-70.92,70.91c-2.56,2.56-6.72,2.56-9.28,0l-58.56-58.56c-2.56-2.56-6.72-2.56-9.28,0l-140.69,140.7c-2.56,2.56-2.56,6.71,0,9.28l19.36,19.37c2.56,2.56,6.72,2.56,9.28,0l112.05-112.06c2.56-2.56,6.72-2.56,9.28,0l58.56,58.55c2.56,2.56,6.72,2.56,9.28,0l99.56-99.56c4.13-4.13,11.2-1.21,11.2,4.64h0c0,3.62,2.94,6.56,6.56,6.56h27.38c3.62,0,6.56-2.94,6.56-6.56v-78.42c0-3.62-2.94-6.56-6.56-6.56h-78.47c-3.62,0-6.56,2.94-6.56,6.56v27.38c0,3.62,2.94,6.56,6.56,6.56Z"/>
  <rect x="224.2" y="144.39" width="206.8" height="40.5" rx="6.56" ry="6.56"/>
</svg>