<?xml version="1.0" encoding="UTF-8"?>
<svg id="Layer_1" data-name="Layer 1" xmlns="http://www.w3.org/2000/svg" viewBox="0 0 800 800">
  <path d="m361.51,796.11c-22.82,0-42.7-16.79-46.48-39.33l-9.69-55.66-48.39-21.61-41.3,29.97c-18.6,13.59-44.03,11.83-60.58-4.2l-56.7-54.05c-16.04-15.19-19.37-39.11-8.05-58.18l31.75-54.12-17.74-39.34-58.02-11.9c-22.14-4.51-37.94-24.14-37.67-46.74v-78.12c-.46-21.7,13.72-40.71,34.7-46.44l57.11-15.73,16.87-46.59-27.25-41.97c-12.18-18.56-9.67-43.34,5.97-59.08l60.46-61.95c16.15-16.76,42.45-19.17,61.37-5.62l42.84,30.42,41.57-20.91,13.86-55.45c5.11-21.05,24.21-36,45.79-36,.24,0,.49,0,.73,0h80.33c.12,0,.24,0,.35,0,22.83,0,42.7,16.79,46.48,39.33l9.64,55.09,45.93,18.93,39.62-28.71c18.29-13.46,43.3-12.03,59.92,3.37l61.78,54.12.5.48c16.75,16.08,19.34,41.61,6.17,60.72l-31.6,46.16,18.67,47,54.48,11.42c22.13,4.56,37.89,24.16,37.61,46.72v75.63c.28,22.55-15.47,42.15-37.58,46.72l-53.62,11.28-18.95,43.91,30.19,43.54c12.88,18.28,11.09,43.22-4.26,59.48l-57.25,61.4c-15.72,16.95-41.89,19.93-61.03,6.94l-46.01-31.06-45.71,20.69-8.54,58.87c-3.28,23.18-23.29,40.53-46.65,40.53-.09,0-.18,0-.27,0h-81.02c-.12,0-.23,0-.35,0Zm11.67-61h57.96l7.92-54.64c2.3-16.03,12.52-29.59,27.33-36.24l59.29-26.83c15.12-6.97,32.91-5.41,46.58,4.07l42.22,28.51,41.82-44.85-28.28-40.78c-9.52-13.6-11.18-31.32-4.35-46.44l24.42-56.58c5.97-14.08,18.44-24.41,33.39-27.65l.19-.04,49.9-10.5v-54.25l-50.88-10.67c-15.64-3.25-28.46-14.1-34.27-29.03l-24.04-60.52c-5.82-14.72-3.93-31.19,5.03-44.15l28.78-42.03-44.06-38.6-36.93,26.76c-13.46,9.9-31.24,11.91-46.57,5.31l-59.35-24.47c-15.15-6.2-25.83-19.52-28.59-35.65l-8.98-51.29h-58.92l-12.93,51.71c-3.42,13.32-12.44,24.44-24.77,30.52l-55.28,27.8c-15.21,7.26-33.26,5.82-47.12-3.77l-.3-.21-40.3-28.61-44.93,46.04,25.1,38.65c8.03,12.37,9.8,28.01,4.73,41.86l-21.56,59.54c-5.19,14.48-17.15,25.52-32,29.56l-53.78,14.81v57.78l53.59,10.99c14.91,2.96,27.53,12.98,33.78,26.83l23.61,52.36c6.29,13.93,5.41,30.13-2.37,43.32l-29.87,50.91,40.68,38.77,38.58-28c13.69-9.91,31.7-11.73,47.06-4.79l61.96,27.67c14.57,6.38,24.86,19.53,27.54,35.23l8.98,51.58Zm118.34-35.3l-.06.03s.04-.02.06-.03Zm-187.43-5.91s0,.05.01.08v-.08Zm-163.69-86.87l.06.06s-.04-.04-.06-.06Zm-14.71-74.22s-.02.03-.03.05l.03-.05Zm567.46-234.3h.06s-.04,0-.06,0ZM119.71,247.54s-.01.03-.02.05l.02-.05Z"/>
  <path d="m400.6,595.51c-107.9,0-195.69-87.79-195.69-195.69s87.79-195.69,195.69-195.69,195.69,87.79,195.69,195.69-87.79,195.69-195.69,195.69Zm0-330.38c-74.27,0-134.69,60.42-134.69,134.69s60.42,134.69,134.69,134.69,134.69-60.42,134.69-134.69-60.42-134.69-134.69-134.69Z"/>
</svg>