<?xml version="1.0" encoding="UTF-8"?>
<svg id="Layer_1" data-name="Layer 1" xmlns="http://www.w3.org/2000/svg" viewBox="0 0 800 800">
  <path d="m505.24,376.3c-9.54,0-18.94-4.47-24.89-12.84-9.75-13.73-6.53-32.77,7.21-42.53,18.59-13.2,33.78-30.96,43.94-51.37,10.37-20.81,15.37-44.1,14.48-67.34-.9-23.23-7.68-46.06-19.62-66.02-11.94-19.95-28.85-36.73-48.9-48.5-20.05-11.78-42.93-18.38-66.17-19.08-23.26-.71-46.49,4.48-67.22,15.02-20.73,10.54-38.63,26.25-51.76,45.44-13.13,19.19-21.29,41.56-23.6,64.7-1.67,16.76-16.6,29-33.38,27.32-16.76-1.67-28.99-16.62-27.32-33.38,3.32-33.29,15.06-65.48,33.96-93.09,18.89-27.61,44.64-50.22,74.47-65.37,29.82-15.16,63.27-22.62,96.71-21.61,33.44,1.02,66.36,10.51,95.21,27.46,28.85,16.95,53.17,41.08,70.35,69.79,17.18,28.71,26.94,61.56,28.22,94.99,1.29,33.43-5.91,66.93-20.83,96.88-14.62,29.36-36.48,54.91-63.23,73.9-5.36,3.81-11.53,5.64-17.63,5.64Z"/>
  <path d="m463.92,238.13h-.49c-41.92,0-82.79-8.29-121.45-24.65-38.7-16.38-73.15-40-102.39-70.18-11.72-12.1-11.41-31.41.69-43.13,12.1-11.72,31.41-11.41,43.13.69,23.52,24.28,51.23,43.27,82.36,56.45,31.09,13.16,63.97,19.83,97.72,19.83.13,0,.26,0,.39,0,33.18,0,65.5-6.44,96.11-19.15,15.56-6.46,33.4.92,39.86,16.48,6.46,15.56-.92,33.41-16.47,39.86-38.06,15.8-78.25,23.81-119.45,23.81Z"/>
  <path d="m370.79,456.06c-5.15,0-10.31-.5-15.43-1.52-15.37-3.06-29.35-10.53-40.42-21.61-11.07-11.07-18.54-25.04-21.6-40.41-3.06-15.37-1.5-31.14,4.49-45.6,6-14.47,16.05-26.72,29.07-35.42,13.02-8.7,28.18-13.3,43.85-13.3,21.08,0,40.9,8.21,55.81,23.12,14.91,14.91,23.12,34.73,23.12,55.81,0,15.67-4.6,30.84-13.31,43.86-8.7,13.02-20.95,23.07-35.42,29.06-9.65,3.99-19.87,6.02-30.16,6.02Zm-.04-96.86c-3.56,0-7,1.04-9.96,3.02s-5.24,4.76-6.6,8.05c-1.36,3.29-1.71,6.87-1.02,10.36.69,3.49,2.39,6.66,4.9,9.17,2.52,2.52,5.7,4.22,9.18,4.91,3.49.69,7.07.34,10.36-1.02,3.28-1.36,6.06-3.64,8.04-6.6,1.98-2.96,3.02-6.4,3.02-9.96,0-4.79-1.87-9.29-5.25-12.68-3.39-3.38-7.89-5.25-12.68-5.25Z"/>
  <path d="m319.84,407.63h-45.95c-34.02,0-66-13.25-90.05-37.3-24.05-24.05-37.3-56.04-37.3-90.05v-34.8c0-16.84,13.66-30.5,30.5-30.5s30.5,13.66,30.5,30.5v34.8c0,17.72,6.9,34.39,19.44,46.92,12.53,12.53,29.2,19.44,46.92,19.44h45.95c16.84,0,30.5,13.65,30.5,30.5s-13.66,30.5-30.5,30.5Z"/>
  <path d="m721.92,795.05h0c-16.84,0-30.5-13.66-30.5-30.5,0-52-14.27-102.97-41.26-147.42-26.88-44.26-65.34-80.32-111.24-104.29-14.93-7.8-20.71-26.22-12.91-41.16,7.8-14.93,26.23-20.71,41.15-12.91,55.75,29.12,102.48,72.93,135.13,126.7,32.79,53.99,50.13,115.92,50.12,179.09,0,16.84-13.66,30.5-30.5,30.5Z"/>
  <path d="m92.36,795.05c-16.84,0-30.5-13.65-30.5-30.5,0-63.16,17.31-125.08,50.09-179.08,32.61-53.71,79.27-97.49,134.93-126.62,14.92-7.81,33.35-2.04,41.17,12.88,7.81,14.93,2.04,33.36-12.88,41.17-45.82,23.98-84.23,60.02-111.07,104.23-26.98,44.45-41.24,95.42-41.24,147.41,0,16.84-13.65,30.5-30.5,30.5Z"/>
</svg>