<?xml version="1.0" encoding="UTF-8"?>
<svg id="Layer_1" data-name="Layer 1" xmlns="http://www.w3.org/2000/svg" xmlns:xlink="http://www.w3.org/1999/xlink" viewBox="0 0 306.96 319.78">
  <defs>
    <style>
      .cls-1 {
        fill: #fff;
      }

      .cls-2 {
        fill: #008fd0;
      }

      .cls-3 {
        clip-path: url(#clippath);
      }

      .cls-4 {
        fill: none;
      }

      .cls-5 {
        fill: #231f20;
      }
    </style>
    <clipPath id="clippath">
      <rect class="cls-4" width="306.96" height="319.78"/>
    </clipPath>
  </defs>
  <g class="cls-3">
    <path class="cls-5" d="m247.93,76.66s0,.18.04.52C238.69,33.1,199.58,0,152.73,0S66.84,33.04,57.51,77.06C47.28,97.34,1.5,97.35,1.5,97.35c0,0,45.68,0,55.96,19.98,9.22,44.17,48.37,77.36,95.28,77.36s85.87-33.02,95.21-77.03c-.01.14-.01.21,0,.2,9.72-20.51,59.09-20.51,59.09-20.51,0,0-49.27,0-59.09-20.69"/>
  </g>
  <polyline class="cls-5" points="1.1 218.14 18.72 218.14 36.05 264.08 36.25 264.08 53.87 218.14 70.4 218.14 41.49 288.23 29.12 288.23 1.1 218.14"/>
  <rect class="cls-5" x="77.53" y="218.14" width="15.44" height="70.09"/>
  <path class="cls-5" d="m141.68,235.27c-2.48-3.17-7.43-4.65-11.19-4.65-4.36,0-10.39,1.98-10.39,7.23,0,12.77,32.27,4.56,32.27,29.1,0,15.64-12.57,23.07-27.03,23.07-9.01,0-16.93-2.67-23.56-8.81l10.99-12.08c3.17,4.16,8.32,6.63,13.46,6.63s10.69-2.38,10.69-7.33c0-12.87-32.87-5.94-32.87-29.31,0-14.95,12.97-22.77,26.73-22.77,7.92,0,15.54,2.08,21.48,7.33l-10.59,11.58"/>
  <rect class="cls-5" x="163.66" y="218.14" width="15.45" height="70.09"/>
  <path class="cls-5" d="m238.99,236.35c-3.07-3.66-7.52-5.74-13.27-5.74-11.68,0-20.29,9.5-20.29,22.57s8.61,22.57,19.8,22.57c6.24,0,11.29-2.77,14.45-7.52l12.87,9.6c-5.84,8.32-15.74,12.18-25.34,12.18-21.88,0-37.82-14.36-37.82-36.83s15.94-36.83,37.82-36.83c7.82,0,17.72,2.67,23.66,10.3l-11.88,9.7"/>
  <path class="cls-5" d="m295.62,235.27c-2.48-3.17-7.43-4.65-11.19-4.65-4.36,0-10.4,1.98-10.4,7.23,0,12.77,32.27,4.56,32.27,29.1,0,15.64-12.57,23.07-27.03,23.07-9.01,0-16.93-2.67-23.56-8.81l10.99-12.08c3.17,4.16,8.32,6.63,13.46,6.63s10.69-2.38,10.69-7.33c0-12.87-32.87-5.94-32.87-29.31,0-14.95,12.97-22.77,26.73-22.77,7.92,0,15.54,2.08,21.48,7.33l-10.59,11.58"/>
  <path class="cls-5" d="m6.04,311.49c-.38-.48-1.12-.7-1.69-.7-.66,0-1.57.3-1.57,1.09,0,1.94,4.89.69,4.89,4.41,0,2.37-1.9,3.49-4.09,3.49-1.37,0-2.56-.41-3.57-1.34l1.66-1.83c.48.63,1.26,1.01,2.04,1.01s1.62-.36,1.62-1.11c0-1.95-4.98-.9-4.98-4.44,0-2.26,1.96-3.45,4.05-3.45,1.2,0,2.35.32,3.25,1.11l-1.61,1.75"/>
  <path class="cls-5" d="m13.8,308.89h1.94l4.62,10.62h-2.64l-.91-2.25h-4.12l-.89,2.25h-2.58l4.59-10.62m.9,3.09l-1.29,3.3h2.59l-1.3-3.3Z"/>
  <polyline class="cls-5" points="22.41 308.89 29.53 308.89 29.53 311.05 24.75 311.05 24.75 313.21 29.17 313.21 29.17 315.37 24.75 315.37 24.75 319.51 22.41 319.51 22.41 308.89"/>
  <polyline class="cls-5" points="32.21 308.89 39.42 308.89 39.42 311.05 34.54 311.05 34.54 313.03 39.15 313.03 39.15 315.19 34.54 315.19 34.54 317.35 39.69 317.35 39.69 319.51 32.21 319.51 32.21 308.89"/>
  <path class="cls-5" d="m51.3,308.89h1.94l4.62,10.62h-2.64l-.92-2.25h-4.12l-.89,2.25h-2.58l4.59-10.62m.9,3.09l-1.29,3.3h2.59l-1.3-3.3Z"/>
  <polyline class="cls-5" points="59.82 308.89 63 308.89 67.51 316.27 67.54 316.27 67.54 308.89 69.88 308.89 69.88 319.51 66.82 319.51 62.19 311.95 62.16 311.95 62.16 319.51 59.82 319.51 59.82 308.89"/>
  <path class="cls-5" d="m72.94,308.89h3.51c3.42,0,6.28,1.45,6.28,5.34,0,3.44-2.81,5.28-5.97,5.28h-3.82v-10.62m2.34,8.46h1.21c2.18,0,3.81-.83,3.81-3.24,0-2.09-1.67-3.06-3.64-3.06h-1.38v6.3Z"/>
  <polyline class="cls-5" points="90.66 308.89 97.87 308.89 97.87 311.05 93 311.05 93 313.03 97.6 313.03 97.6 315.19 93 315.19 93 317.35 98.14 317.35 98.14 319.51 90.66 319.51 90.66 308.89"/>
  <polyline class="cls-5" points="101.01 308.89 108.13 308.89 108.13 311.05 103.35 311.05 103.35 313.21 107.77 313.21 107.77 315.37 103.35 315.37 103.35 319.51 101.01 319.51 101.01 308.89"/>
  <polyline class="cls-5" points="110.8 308.89 117.93 308.89 117.93 311.05 113.14 311.05 113.14 313.21 117.57 313.21 117.57 315.37 113.14 315.37 113.14 319.51 110.8 319.51 110.8 308.89"/>
  <rect class="cls-5" x="120.48" y="308.89" width="2.34" height="10.62"/>
  <path class="cls-5" d="m132.79,311.65c-.47-.55-1.14-.87-2.01-.87-1.77,0-3.07,1.44-3.07,3.42s1.3,3.42,3,3.42c.94,0,1.71-.42,2.19-1.14l1.95,1.46c-.88,1.26-2.38,1.84-3.84,1.84-3.32,0-5.73-2.18-5.73-5.58s2.42-5.58,5.73-5.58c1.18,0,2.68.4,3.58,1.56l-1.8,1.47"/>
  <rect class="cls-5" x="136.99" y="308.89" width="2.34" height="10.62"/>
  <polyline class="cls-5" points="142.45 308.89 149.67 308.89 149.67 311.05 144.79 311.05 144.79 313.03 149.4 313.03 149.4 315.19 144.79 315.19 144.79 317.35 149.94 317.35 149.94 319.51 142.45 319.51 142.45 308.89"/>
  <polyline class="cls-5" points="152.71 308.89 155.89 308.89 160.41 316.27 160.44 316.27 160.44 308.89 162.78 308.89 162.78 319.51 159.72 319.51 155.08 311.95 155.05 311.95 155.05 319.51 152.71 319.51 152.71 308.89"/>
  <polyline class="cls-5" points="167.89 310.96 164.86 310.96 164.86 308.89 173.26 308.89 173.26 310.96 170.23 310.96 170.23 319.51 167.89 319.51 167.89 310.96"/>
  <polyline class="cls-5" points="182.74 310.96 179.71 310.96 179.71 308.89 188.11 308.89 188.11 310.96 185.08 310.96 185.08 319.51 182.74 319.51 182.74 310.96"/>
  <path class="cls-5" d="m199.15,315.42c0,2.5-1.53,4.36-4.47,4.36s-4.49-1.86-4.49-4.36v-6.52h2.34v6.43c0,1.3.9,2.29,2.15,2.29s2.13-.99,2.13-2.29v-6.43h2.34v6.52"/>
  <path class="cls-5" d="m202.21,308.89h4.11c2.17,0,4,.75,4,3.22,0,1.49-.79,2.64-2.29,2.91l2.7,4.49h-2.8l-2.22-4.24h-1.15v4.24h-2.34v-10.62m2.34,4.39h1.38c.85,0,1.96-.03,1.96-1.18,0-1.07-.96-1.23-1.81-1.23h-1.53v2.41Z"/>
  <polyline class="cls-5" points="212.83 308.89 216.01 308.89 220.53 316.27 220.56 316.27 220.56 308.89 222.9 308.89 222.9 319.51 219.84 319.51 215.2 311.95 215.17 311.95 215.17 319.51 212.83 319.51 212.83 308.89"/>
  <path class="cls-5" d="m229.45,308.89h1.93l4.62,10.62h-2.64l-.91-2.25h-4.12l-.89,2.25h-2.58l4.59-10.62m.9,3.09l-1.29,3.3h2.59l-1.3-3.3Z"/>
  <path class="cls-5" d="m237.97,308.89h4.11c2.17,0,4,.75,4,3.22,0,1.49-.79,2.64-2.29,2.91l2.7,4.49h-2.8l-2.22-4.24h-1.15v4.24h-2.34v-10.62m2.34,4.39h1.38c.85,0,1.96-.03,1.96-1.18,0-1.07-.96-1.23-1.81-1.23h-1.53v2.41Z"/>
  <path class="cls-5" d="m253.75,308.62c3.31,0,5.73,2.17,5.73,5.58s-2.42,5.58-5.73,5.58-5.73-2.17-5.73-5.58,2.42-5.58,5.73-5.58m0,9c1.99,0,3.3-1.44,3.3-3.42s-1.31-3.42-3.3-3.42-3.3,1.44-3.3,3.42,1.31,3.42,3.3,3.42Z"/>
  <path class="cls-5" d="m270.93,315.42c0,2.5-1.53,4.36-4.47,4.36s-4.48-1.86-4.48-4.36v-6.52h2.34v6.43c0,1.3.9,2.29,2.14,2.29s2.13-.99,2.13-2.29v-6.43h2.34v6.52"/>
  <polyline class="cls-5" points="273.99 308.89 277.17 308.89 281.68 316.27 281.71 316.27 281.71 308.89 284.05 308.89 284.05 319.51 280.99 319.51 276.36 311.95 276.33 311.95 276.33 319.51 273.99 319.51 273.99 308.89"/>
  <path class="cls-5" d="m287.11,308.89h3.51c3.42,0,6.29,1.45,6.29,5.34,0,3.44-2.8,5.28-5.97,5.28h-3.83v-10.62m2.34,8.46h1.21c2.17,0,3.81-.83,3.81-3.24,0-2.09-1.67-3.06-3.65-3.06h-1.38v6.3Z"/>
  <path class="cls-5" d="m304.65,311.49c-.38-.48-1.12-.7-1.7-.7-.66,0-1.58.3-1.58,1.09,0,1.94,4.89.69,4.89,4.41,0,2.37-1.9,3.49-4.1,3.49-1.36,0-2.57-.41-3.57-1.34l1.67-1.83c.48.63,1.26,1.01,2.04,1.01s1.62-.36,1.62-1.11c0-1.95-4.98-.9-4.98-4.44,0-2.26,1.96-3.45,4.05-3.45,1.2,0,2.36.32,3.25,1.11l-1.6,1.75"/>
  <path class="cls-1" d="m152.35,171.39c-41.36,0-74.94-33.54-74.94-74.93S111,21.51,152.35,21.51s74.88,33.6,74.88,74.96-33.52,74.93-74.88,74.93"/>
  <path class="cls-2" d="m152.35,162.82c-36.77,0-66.6-29.77-66.6-66.56S115.59,29.65,152.35,29.65s66.54,29.81,66.54,66.61-29.76,66.56-66.54,66.56"/>
  <path class="cls-5" d="m152.33,146.06c-27.59,0-50-22.39-50-49.94s22.41-49.98,50-49.98,49.9,22.35,49.9,49.98-22.35,49.94-49.9,49.94"/>
</svg>